# xmcd CD database file
#
# Track frame offsets:
#	150
#	20590
#	39892
#	60312
#
# Disc length: 1061 seconds
#
# Revision: 2
# Processed by: cddbd v1.5.1PL2 Copyright (c) Steve Scherf et al.
# Submitted via: CDex 1.51
#
DISCID=24042304
DTITLE=広瀬香美 - ロマンスの神様
DYEAR=1993
DGENRE=J-Pop
TTITLE0=ロマンスの神様
TTITLE1=ｎａ ｎａ ｎａ…
TTITLE2=ロマンスの神様 （オリジナル・カラオケ）
TTITLE3=ｎａ ｎａ ｎａ… （オリジナル・カラオケ）
EXTD=YEAR: 1993
EXTT0=
EXTT1=
EXTT2=
EXTT3=
PLAYORDER=
